<mxfile host="app.diagrams.net" modified="2022-05-24T05:31:13.430Z" agent="5.0 (Windows NT 10.0; Win64; x64) AppleWebKit/537.36 (KHTML, like Gecko) Chrome/101.0.4951.67 Safari/537.36" etag="SaiaUDt_NG2V7mKZJXho" version="17.4.5" type="github">
  <diagram id="6Xy71mcy0B5_TcT0zvnA" name="Page-1">
    <mxGraphModel dx="1038" dy="617" grid="1" gridSize="10" guides="1" tooltips="1" connect="1" arrows="1" fold="1" page="1" pageScale="1" pageWidth="850" pageHeight="1100" math="0" shadow="0">
      <root>
        <mxCell id="0" />
        <mxCell id="1" parent="0" />
        <mxCell id="Lc0o0xcUNqvyehM-NceA-1" value="" style="whiteSpace=wrap;html=1;aspect=fixed;" vertex="1" parent="1">
          <mxGeometry x="160" y="40" width="440" height="440" as="geometry" />
        </mxCell>
        <mxCell id="Lc0o0xcUNqvyehM-NceA-2" value="Buzzer" style="ellipse;whiteSpace=wrap;html=1;" vertex="1" parent="1">
          <mxGeometry x="350" y="50" width="60" height="40" as="geometry" />
        </mxCell>
        <mxCell id="Lc0o0xcUNqvyehM-NceA-3" value="" style="ellipse;whiteSpace=wrap;html=1;aspect=fixed;" vertex="1" parent="1">
          <mxGeometry x="300" y="130" width="10" height="10" as="geometry" />
        </mxCell>
        <mxCell id="Lc0o0xcUNqvyehM-NceA-4" value="" style="ellipse;whiteSpace=wrap;html=1;aspect=fixed;" vertex="1" parent="1">
          <mxGeometry x="440" y="130" width="10" height="10" as="geometry" />
        </mxCell>
        <mxCell id="Lc0o0xcUNqvyehM-NceA-5" value="" style="ellipse;whiteSpace=wrap;html=1;aspect=fixed;" vertex="1" parent="1">
          <mxGeometry x="300" y="160" width="10" height="10" as="geometry" />
        </mxCell>
        <mxCell id="Lc0o0xcUNqvyehM-NceA-6" value="" style="ellipse;whiteSpace=wrap;html=1;aspect=fixed;" vertex="1" parent="1">
          <mxGeometry x="300" y="190" width="10" height="10" as="geometry" />
        </mxCell>
        <mxCell id="Lc0o0xcUNqvyehM-NceA-7" value="" style="ellipse;whiteSpace=wrap;html=1;aspect=fixed;" vertex="1" parent="1">
          <mxGeometry x="300" y="220" width="10" height="10" as="geometry" />
        </mxCell>
        <mxCell id="Lc0o0xcUNqvyehM-NceA-8" value="" style="ellipse;whiteSpace=wrap;html=1;aspect=fixed;" vertex="1" parent="1">
          <mxGeometry x="300" y="250" width="10" height="10" as="geometry" />
        </mxCell>
        <mxCell id="Lc0o0xcUNqvyehM-NceA-9" value="" style="ellipse;whiteSpace=wrap;html=1;aspect=fixed;" vertex="1" parent="1">
          <mxGeometry x="300" y="280" width="10" height="10" as="geometry" />
        </mxCell>
        <mxCell id="Lc0o0xcUNqvyehM-NceA-10" value="" style="ellipse;whiteSpace=wrap;html=1;aspect=fixed;" vertex="1" parent="1">
          <mxGeometry x="300" y="310" width="10" height="10" as="geometry" />
        </mxCell>
        <mxCell id="Lc0o0xcUNqvyehM-NceA-11" value="" style="ellipse;whiteSpace=wrap;html=1;aspect=fixed;" vertex="1" parent="1">
          <mxGeometry x="300" y="340" width="10" height="10" as="geometry" />
        </mxCell>
        <mxCell id="Lc0o0xcUNqvyehM-NceA-12" value="" style="ellipse;whiteSpace=wrap;html=1;aspect=fixed;" vertex="1" parent="1">
          <mxGeometry x="300" y="370" width="10" height="10" as="geometry" />
        </mxCell>
        <mxCell id="Lc0o0xcUNqvyehM-NceA-13" value="" style="ellipse;whiteSpace=wrap;html=1;aspect=fixed;" vertex="1" parent="1">
          <mxGeometry x="300" y="400" width="10" height="10" as="geometry" />
        </mxCell>
        <mxCell id="Lc0o0xcUNqvyehM-NceA-14" value="" style="ellipse;whiteSpace=wrap;html=1;aspect=fixed;" vertex="1" parent="1">
          <mxGeometry x="440" y="160" width="10" height="10" as="geometry" />
        </mxCell>
        <mxCell id="Lc0o0xcUNqvyehM-NceA-15" value="" style="ellipse;whiteSpace=wrap;html=1;aspect=fixed;" vertex="1" parent="1">
          <mxGeometry x="440" y="190" width="10" height="10" as="geometry" />
        </mxCell>
        <mxCell id="Lc0o0xcUNqvyehM-NceA-16" value="" style="ellipse;whiteSpace=wrap;html=1;aspect=fixed;" vertex="1" parent="1">
          <mxGeometry x="440" y="220" width="10" height="10" as="geometry" />
        </mxCell>
        <mxCell id="Lc0o0xcUNqvyehM-NceA-17" value="" style="ellipse;whiteSpace=wrap;html=1;aspect=fixed;" vertex="1" parent="1">
          <mxGeometry x="440" y="250" width="10" height="10" as="geometry" />
        </mxCell>
        <mxCell id="Lc0o0xcUNqvyehM-NceA-18" value="" style="ellipse;whiteSpace=wrap;html=1;aspect=fixed;" vertex="1" parent="1">
          <mxGeometry x="440" y="280" width="10" height="10" as="geometry" />
        </mxCell>
        <mxCell id="Lc0o0xcUNqvyehM-NceA-19" value="" style="ellipse;whiteSpace=wrap;html=1;aspect=fixed;" vertex="1" parent="1">
          <mxGeometry x="440" y="310" width="10" height="10" as="geometry" />
        </mxCell>
        <mxCell id="Lc0o0xcUNqvyehM-NceA-20" value="" style="ellipse;whiteSpace=wrap;html=1;aspect=fixed;" vertex="1" parent="1">
          <mxGeometry x="440" y="340" width="10" height="10" as="geometry" />
        </mxCell>
        <mxCell id="Lc0o0xcUNqvyehM-NceA-21" value="" style="ellipse;whiteSpace=wrap;html=1;aspect=fixed;" vertex="1" parent="1">
          <mxGeometry x="440" y="370" width="10" height="10" as="geometry" />
        </mxCell>
        <mxCell id="Lc0o0xcUNqvyehM-NceA-22" value="" style="ellipse;whiteSpace=wrap;html=1;aspect=fixed;" vertex="1" parent="1">
          <mxGeometry x="440" y="400" width="10" height="10" as="geometry" />
        </mxCell>
        <mxCell id="Lc0o0xcUNqvyehM-NceA-28" value="A&lt;br&gt;&lt;br&gt;B&lt;br&gt;&lt;br&gt;C&lt;br&gt;&lt;br&gt;D&lt;br&gt;&lt;br&gt;E&lt;br&gt;&lt;br&gt;F&lt;br&gt;&lt;br&gt;G&lt;br&gt;&lt;br&gt;H&lt;br&gt;&lt;br&gt;I&lt;br&gt;&lt;br&gt;J" style="rounded=0;whiteSpace=wrap;html=1;" vertex="1" parent="1">
          <mxGeometry x="170" y="130" width="120" height="290" as="geometry" />
        </mxCell>
        <mxCell id="Lc0o0xcUNqvyehM-NceA-29" value="K&lt;br&gt;&lt;br&gt;L&lt;br&gt;&lt;br&gt;M&lt;br&gt;&lt;br&gt;N&lt;br&gt;&lt;br&gt;O&lt;br&gt;&lt;br&gt;P&lt;br&gt;&lt;br&gt;Q&lt;br&gt;&lt;br&gt;R&lt;br&gt;&lt;br&gt;S&lt;br&gt;&lt;br&gt;T" style="rounded=0;whiteSpace=wrap;html=1;" vertex="1" parent="1">
          <mxGeometry x="470" y="130" width="120" height="290" as="geometry" />
        </mxCell>
        <mxCell id="Lc0o0xcUNqvyehM-NceA-30" value="CHILD&lt;br&gt;" style="shape=umlActor;verticalLabelPosition=bottom;verticalAlign=top;html=1;outlineConnect=0;" vertex="1" parent="1">
          <mxGeometry x="365" y="400" width="30" height="60" as="geometry" />
        </mxCell>
        <mxCell id="Lc0o0xcUNqvyehM-NceA-32" value="" style="rounded=0;whiteSpace=wrap;html=1;" vertex="1" parent="1">
          <mxGeometry x="650" y="180" width="160" height="50" as="geometry" />
        </mxCell>
        <mxCell id="Lc0o0xcUNqvyehM-NceA-34" value="" style="ellipse;whiteSpace=wrap;html=1;aspect=fixed;" vertex="1" parent="1">
          <mxGeometry x="670" y="200" width="10" height="10" as="geometry" />
        </mxCell>
        <mxCell id="Lc0o0xcUNqvyehM-NceA-36" value="&lt;b&gt;-&amp;gt;&lt;/b&gt; SWITCH" style="text;html=1;strokeColor=none;fillColor=none;align=center;verticalAlign=middle;whiteSpace=wrap;rounded=0;" vertex="1" parent="1">
          <mxGeometry x="680" y="190" width="90" height="30" as="geometry" />
        </mxCell>
      </root>
    </mxGraphModel>
  </diagram>
</mxfile>
